<?xml version="1.0" encoding="utf-8"?>
<!-- Generator: Adobe Illustrator 22.0.1, SVG Export Plug-In . SVG Version: 6.00 Build 0)  -->
<svg version="1.1" xmlns="http://www.w3.org/2000/svg" xmlns:xlink="http://www.w3.org/1999/xlink" x="0px" y="0px"
	 viewBox="0 0 512 512" style="enable-background:new 0 0 512 512;" xml:space="preserve">
<style type="text/css">
	.st0{fill:#A5CDBC;}
	.st1{fill:#453D80;}
	.st2{fill:#E9D178;}
	.st3{fill:#918BC6;}
	.st4{fill:#E2A2AB;}
	.st5{fill:#EECAC4;}
	.st6{fill:#7CB59C;}
	.st7{fill:#BDB9DC;}
	.st8{fill:#E2A66F;}
	.st9{fill:#DAAB5C;}
	.st10{fill:#74A0FB;}
	.st11{fill:#EDBB87;}
	.st12{fill:#EFCBC5;}
	.st13{fill:#CB9E56;}
	.st14{fill:#F8EF6C;}
	.st15{fill:#BBD9CC;}
	.st16{fill:#673528;}
	.st17{fill:#532B22;}
	.st18{fill:#7A3F2C;}
	.st19{fill:#B9865D;}
	.st20{fill:#A1ACA5;}
	.st21{fill:#B7C7BE;}
	.st22{fill:#D3E8DF;}
	.st23{fill:#AA583E;}
	.st24{fill:#944937;}
	.st25{fill:#E9A497;}
	.st26{fill:#C15E48;}
	.st27{fill:#D29289;}
	.st28{fill:#E4CAC8;}
	.st29{fill:#BFE6D5;}
	.st30{fill:#A2D6BD;}
	.st31{fill:#D5EBE2;}
	.st32{fill:#EBF3EF;}
	.st33{fill:#5F55AB;}
	.st34{fill:#2A284C;}
	.st35{fill:#D69C6C;}
	.st36{fill:#CE9567;}
	.st37{fill:#EAE7D6;}
	.st38{fill:#E1C978;}
	.st39{fill:#544C4A;}
	.st40{fill:#ACABB4;}
	.st41{fill:#BC8B63;}
	.st42{fill:#B9D7CA;}
	.st43{fill:#C9B26B;}
	.st44{fill:#817EB1;}
	.st45{fill:#3C3B4D;}
	.st46{fill:#2B2A36;}
	.st47{fill:#CC9567;}
	.st48{fill:#AF7C59;}
	.st49{fill:#A27855;}
	.st50{fill:#B4825B;}
	.st51{fill:#806045;}
	.st52{fill:#CB8694;}
	.st53{fill:#AE6E7E;}
	.st54{fill:#DDC3CB;}
	.st55{fill:#DEE8E3;}
	.st56{fill:#9B3A52;}
	.st57{fill:#C43C50;}
	.st58{fill:#538872;}
	.st59{fill:#67A78A;}
	.st60{fill:none;stroke:#E2A66F;stroke-width:6;stroke-linecap:round;stroke-miterlimit:10;}
	.st61{fill:none;stroke:#B9865D;stroke-width:6;stroke-linecap:round;stroke-miterlimit:10;}
	.st62{fill:#C4D6CD;}
	.st63{fill:#BCE9F2;}
	.st64{fill:#E2B9C1;}
	.st65{fill:#D19AA6;}
	.st66{fill:#D8ACB7;}
	.st67{fill:#C4929F;}
	.st68{fill:#CA6F63;}
	.st69{fill:#E07B67;}
	.st70{fill:#DF9589;}
	.st71{fill:#BE6761;}
	.st72{fill:#9B7380;}
	.st73{fill:#C48D99;}
	.st74{fill:#A97A86;}
	.st75{fill:#886672;}
	.st76{fill:#EEE8D6;}
	.st77{fill:#DCD7C8;}
	.st78{fill:#DB95A3;}
	.st79{fill:#E3CCD3;}
	.st80{fill:#CFBEC3;}
	.st81{fill:#EDE5E7;}
	.st82{fill:#39356B;}
	.st83{fill:#D8E8E1;}
	.st84{fill:none;stroke:#E2A66F;stroke-width:10;stroke-linecap:round;stroke-miterlimit:10;}
	.st85{fill:#C0A2A1;}
	.st86{fill:#ABAAD4;}
	.st87{fill:#514C96;}
	.st88{fill:#C1C1DF;}
	.st89{fill:#807CAE;}
	.st90{fill:#40715B;}
	.st91{fill:#DB9E6B;}
	.st92{fill:#E3C8B0;}
	.st93{fill:#653528;}
	.st94{fill:#D0C5C2;}
	.st95{fill:#EBE4E2;}
	.st96{fill:#F2F0DE;}
	.st97{fill:#668C7B;}
	.st98{fill:#65937D;}
	.st99{fill:#AD617E;}
	.st100{fill:#C97793;}
	.st101{fill:#E28DA3;}
	.st102{fill:#F9A2B3;}
	.st103{fill:#F2D7DC;}
	.st104{fill:#963346;}
	.st105{fill:#AA394E;}
	.st106{fill:#C8C8D5;}
	.st107{fill:#D5D4E8;}
	.st108{fill:#A2A1AF;}
	.st109{fill:#BABACB;}
	.st110{fill:#CCE0D7;}
	.st111{fill:#E0A0A9;}
	.st112{fill:#943346;}
	.st113{fill:#8F89C4;}
	.st114{fill:#BBB7DA;}
	.st115{fill:#C23C50;}
	.st116{fill:#A8394E;}
	.st117{fill:#EBB985;}
	.st118{fill:#DFA36F;}
	.st119{fill:#E1D3CF;}
	.st120{fill:#A59B98;}
	.st121{fill:#3E221C;}
	.st122{fill:none;stroke:#B7845D;stroke-width:8;stroke-linecap:round;stroke-miterlimit:10;}
	.st123{fill:none;stroke:#743A2F;stroke-width:7;stroke-linecap:round;stroke-miterlimit:10;}
	.st124{fill:#EEEBDA;}
	.st125{fill:#E5CD78;}
	.st126{fill:#69342A;}
	.st127{fill:#8C8482;}
	.st128{fill:#BA9D6F;}
	.st129{fill:#EFEFEF;}
	.st130{fill:none;stroke:#E2A66F;stroke-width:8;stroke-linecap:round;stroke-miterlimit:10;}
	.st131{fill:#6A9982;}
	.st132{fill:#638DCA;}
	.st133{fill:#6B96E1;}
	.st134{fill:#90B6F3;}
	.st135{fill:#6796EB;}
	.st136{fill:#C8A7A5;}
	.st137{fill:#817EAE;}
	.st138{fill:#DF9387;}
	.st139{fill:#B99151;}
	.st140{fill:#EFE8D0;}
	.st141{fill:#CC8D84;}
	.st142{fill:#304B78;}
	.st143{fill:#283F65;}
	.st144{fill:#365780;}
	.st145{fill:#CC94A0;}
	.st146{fill:#C0C6CC;}
	.st147{fill:#EBD5DA;}
	.st148{fill:#668ED4;}
	.st149{fill:#D4C3C7;}
	.st150{fill:#ACB0B4;}
	.st151{fill:#B6BDC3;}
	.st152{fill:#CE9668;}
	.st153{fill:#9C9FA0;}
	.st154{fill:#893248;}
	.st155{fill:#E7EBF0;}
	.st156{fill:#673628;}
	.st157{fill:#ECE9D8;}
	.st158{fill:#E3CB78;}
	.st159{fill:#6D9E86;}
	.st160{fill:#BE9573;}
	.st161{fill:#D1A37A;}
	.st162{fill:#D5C6B8;}
	.st163{fill:#E7D4C3;}
	.st164{fill:#B4A69A;}
	.st165{fill:#C79064;}
	.st166{fill:#BEC4C9;}
	.st167{fill:#AAADB2;}
	.st168{fill:#B4BBC1;}
	.st169{fill:#CC9468;}
	.st170{fill:#9A9D9E;}
	.st171{fill:#873248;}
	.st172{fill:#E5E9EE;}
	.st173{fill:#DBBBB8;}
	.st174{fill:#D3CAC3;}
	.st175{fill:#E4DAD1;}
	.st176{fill:#979492;}
	.st177{fill:#BAB5B0;}
	.st178{fill:#D1996C;}
	.st179{fill:#58504B;}
	.st180{fill:#E3DBDB;}
	.st181{fill:#855151;}
	.st182{fill:#BD8F9B;}
	.st183{fill:#CFC45A;}
	.st184{fill:#599178;}
	.st185{fill:#C3EDDE;}
	.st186{fill:#A2D4BF;}
	.st187{fill:#CA6F62;}
	.st188{fill:#EBDDE0;}
	.st189{fill:#D7CCCF;}
	.st190{fill:#CBC8C9;}
	.st191{fill:#A39EA0;}
	.st192{fill:#BAB2B4;}
	.st193{fill:#AA818B;}
	.st194{fill:#BF8D97;}
	.st195{fill:#C8939E;}
	.st196{fill:#E4C0C7;}
	.st197{fill:#A5BAD3;}
	.st198{fill:#B3CAEC;}
	.st199{fill:#6C95DC;}
	.st200{fill:#6E9AE6;}
	.st201{fill:#D4A67D;}
	.st202{fill:#D3D1C2;}
	.st203{fill:#827FB3;}
	.st204{fill:#646386;}
	.st205{fill:#6F6D97;}
	.st206{fill:#5A597A;}
	.st207{fill:#B6B4DA;}
	.st208{fill:#D0CEC0;}
	.st209{fill:#DAB9B6;}
	.st210{fill:#7E7AAB;}
	.st211{fill:#DBC5C5;}
	.st212{fill:#E0C18D;}
	.st213{fill:#7D9DC8;}
	.st214{fill:#9EBEEF;}
	.st215{fill:#C3D6F0;}
	.st216{fill:#B79872;}
	.st217{fill:#A68962;}
	.st218{fill:#70665E;}
	.st219{fill:#8E9791;}
	.st220{fill:#535399;}
	.st221{fill:#E0EBE4;}
	.st222{fill:#C08B96;}
	.st223{fill:#DDEDE7;}
	.st224{fill:#A68048;}
	.st225{fill:#474085;}
	.st226{fill:#7C7C9C;}
	.st227{fill:#9E9DCD;}
	.st228{fill:#4D291F;}
	.st229{fill:#854735;}
	.st230{fill:#9C533F;}
	.st231{fill:#D15F2E;}
	.st232{fill:#C26862;}
	.st233{fill:#464648;}
	.st234{fill:#3A3A3C;}
	.st235{fill:#5E5E63;}
	.st236{fill:#4F4F55;}
	.st237{fill:#7F7F86;}
	.st238{fill:#686871;}
	.st239{fill:#548A72;}
	.st240{fill:#67A98C;}
	.st241{fill:#CC9366;}
	.st242{fill:#CEB76E;}
	.st243{fill:#E1D4AB;}
	.st244{fill:#A87958;}
	.st245{fill:#92B5A5;}
	.st246{fill:#B68B4F;}
	.st247{fill:#D5B788;}
	.st248{fill:#CDE0D8;}
	.st249{fill:#6F6D95;}
	.st250{fill:#DAE1E6;}
	.st251{fill:#E0B7BF;}
	.st252{fill:#C2909D;}
	.st253{fill:#D6AAB5;}
	.st254{fill:#807FB1;}
	.st255{fill:#646384;}
	.st256{fill:#B4B2D8;}
	.st257{fill:#E8E5D4;}
	.st258{fill:#DFC778;}
	.st259{fill:#CF98A4;}
	.st260{fill:#99737F;}
	.st261{fill:none;stroke:#538872;stroke-width:10;stroke-linecap:round;stroke-miterlimit:10;}
	.st262{fill:#87485A;}
	.st263{fill:#A25365;}
	.st264{fill:#A4BDB1;}
	.st265{fill:#C7A23A;}
	.st266{fill:#E6BE3F;}
	.st267{fill:#A77D5A;}
	.st268{fill:#DDD9D5;}
	.st269{fill:#9F7654;}
	.st270{fill:#8B6A4D;}
	.st271{fill:#CACCCB;}
	.st272{fill:#C7C7D3;}
	.st273{fill:#D7D6E8;}
	.st274{fill:#E9DBDE;}
	.st275{fill:#D5CACD;}
	.st276{fill:#C9C6C7;}
	.st277{fill:#A19C9E;}
	.st278{fill:#B8AFB2;}
	.st279{fill:#6C9C84;}
	.st280{fill:#8481B6;}
	.st281{fill:#82653B;}
	.st282{fill:#D1CFC0;}
	.st283{fill:#C6919C;}
	.st284{fill:#A88089;}
	.st285{fill:#CECCBE;}
	.st286{fill:#739EF9;}
	.st287{fill:#A3B8D1;}
	.st288{fill:#B1C8EA;}
	.st289{fill:#6B93DA;}
	.st290{fill:#6D98E4;}
	.st291{fill:#BCC2C7;}
	.st292{fill:#A8ABB0;}
	.st293{fill:#B2B9BF;}
	.st294{fill:#CA9268;}
	.st295{fill:#DDA16E;}
	.st296{fill:#989B9C;}
	.st297{fill:#C03C50;}
	.st298{fill:#853248;}
	.st299{fill:#E3E7EC;}
	.st300{fill:#AC844B;}
	.st301{fill:#C6BB5A;}
	.st302{fill:#94B5A6;}
	.st303{fill:#C7E0D5;}
	.st304{fill:#6892DC;}
	.st305{fill:#B7D5C8;}
	.st306{fill:#A2BBAF;}
	.st307{fill:#528672;}
	.st308{fill:#67A588;}
	.st309{fill:#C5A03A;}
	.st310{fill:#E4BC3F;}
	.st311{fill:#DCE6E1;}
	.st312{fill:#993A52;}
	.st313{fill:#983347;}
</style>
<g id="BULINE">
	<g>
		<g>
			<path id="XMLID_1244_" class="st2" d="M512,256c0,3.3-0.1,6.5-0.2,9.8c-0.3,7.8-0.9,15.5-1.9,23.2c-1,7.9-2.4,15.7-4.1,23.3
				c-1.1,4.8-2.3,9.5-3.6,14.2c-2,6.8-4.2,13.5-6.7,20.1c-1.1,3-2.3,5.9-3.5,8.8c-0.5,1.1-0.9,2.2-1.4,3.3c-3.3,7.6-7,14.9-11,22.1
				c-2.3,4.1-4.7,8.1-7.2,12c-4.4,6.9-9.1,13.6-14.1,20c-1.2,1.5-2.4,3.1-3.7,4.6c-2.5,3.1-5.1,6.1-7.7,9c-2.2,2.4-4.4,4.8-6.7,7.2
				c-1.4,1.5-2.8,2.9-4.2,4.3c-1.8,1.8-3.6,3.5-5.5,5.3c-5.4,5-10.9,9.8-16.7,14.3c-0.8,0.6-1.5,1.2-2.3,1.8
				c-8.3,6.4-17,12.2-26,17.5c-0.5,0.3-1,0.6-1.5,0.9c-0.2,0.1-0.4,0.2-0.5,0.3c-3.2,1.8-6.3,3.6-9.6,5.2c-0.8,0.4-1.5,0.8-2.3,1.2
				c-0.8,0.4-1.5,0.8-2.3,1.2c-1.6,0.8-3.1,1.5-4.7,2.3c-0.1,0-0.2,0.1-0.3,0.1c-1,0.5-2.1,1-3.1,1.4c-10.1,4.6-20.6,8.5-31.4,11.8
				c-7,2.1-14,3.9-21.2,5.4c-5.9,1.2-11.9,2.3-17.9,3.1c-3.4,0.5-6.9,0.9-10.3,1.2c-1.4,0.1-2.9,0.3-4.3,0.4
				c-4.2,0.3-8.4,0.6-12.7,0.7c-2.5,0.1-5,0.1-7.5,0.1h-0.3c-0.7,0-1.4,0-2.1,0c-6.5-0.1-13-0.4-19.5-0.9c-0.9-0.1-1.8-0.1-2.7-0.2
				c-0.2,0-0.3,0-0.5,0c-3.4-0.3-6.8-0.7-10.1-1.2c-13.3-1.8-26.2-4.6-38.7-8.4c-4.3-1.3-8.5-2.7-12.7-4.2c0,0-0.1,0-0.1,0
				c-9.2-3.3-18.1-7.1-26.8-11.4c0,0,0,0-0.1,0c-1.5-0.7-3-1.5-4.4-2.2c-1.3-0.7-2.6-1.4-3.9-2.1c-0.3-0.2-0.7-0.3-1-0.5
				c-5.1-2.8-10-5.7-14.9-8.8c-7-4.5-13.7-9.2-20.2-14.3c-5.8-4.5-11.3-9.3-16.7-14.3c-3.3-3.1-6.6-6.3-9.7-9.6
				c-2.3-2.3-4.5-4.8-6.7-7.2c-0.5-0.6-1.1-1.2-1.6-1.8c-7.5-8.5-14.4-17.5-20.7-27c-1.1-1.6-2.1-3.2-3.1-4.8
				c-0.4-0.7-0.8-1.3-1.2-2c-2-3.3-4-6.6-5.9-10c-4-7.2-7.7-14.5-11-22.1c-0.5-1.1-1-2.2-1.4-3.3c-1.2-2.9-2.4-5.8-3.5-8.8
				c-2.5-6.6-4.7-13.3-6.7-20.1c-1.3-4.7-2.5-9.4-3.6-14.2c-1.7-7.7-3.1-15.4-4.1-23.3c-0.2-1.3-0.3-2.5-0.5-3.8
				c-0.7-6.4-1.2-12.8-1.5-19.4C0.1,262.5,0,259.3,0,256C0,158,55.1,72.8,136,29.8c11.7-6.2,24-11.6,36.7-16c4.3-1.5,8.6-2.8,13-4.1
				C208,3.4,231.6,0,256,0s48,3.4,70.4,9.8c12.9,3.7,25.4,8.3,37.4,13.9c4.2,1.9,8.3,4,12.3,6.1C456.9,72.9,512,158,512,256z"/>
		</g>
	</g>
</g>
<g id="ICON_1_">
	<g id="XMLID_1059_">
		<g id="XMLID_1120_">
			<path id="XMLID_1243_" class="st183" d="M241.1,501.4L241.1,501.4c-10.5,0-19.1-8.5-19.1-19.1V340.2h38.1v142.1
				C260.2,492.8,251.7,501.4,241.1,501.4z"/>
			<path id="XMLID_1242_" class="st183" d="M315.7,501.4L315.7,501.4c-10.5,0-19.1-8.5-19.1-19.1V340.2h38.1v142.1
				C334.8,492.8,326.2,501.4,315.7,501.4z"/>
			<path id="XMLID_1241_" class="st183" d="M279,501.4L279,501.4c-10.5,0-19.1-8.5-19.1-19.1V340.2H298v142.1
				C298,492.8,289.5,501.4,279,501.4z"/>
			<g id="XMLID_1235_">
				<g id="XMLID_1237_">
					<path id="XMLID_1240_" class="st183" d="M276.6,137c11.9,30.4,2.8,74.4-24.6,91.1c-2.2,1.4-4.6,2.5-7.1,3.5
						c-2,0.8-4.1,1.4-6.1,1.9c-31.8,7.5-69.2-19-81.3-49.9c-3.6-9.2-3.7-23.1-1.9-38.3c0.4-3.8,1-7.7,1.7-11.7
						c6-36.5,19.7-75.9,19.7-75.9s0,0,0,0c1.4,0.7,39.1,21,68.1,44.1c3.9,3.1,7.7,6.3,11.1,9.4C265.8,120.1,273.4,129,276.6,137z"/>
					<path id="XMLID_1239_" class="st183" d="M256.2,111.3l-11.6,13.8l-24.9,29.6l-3.3,3.9l-4.3-0.9l-56.5-12.4
						c0.4-3.8,1-7.7,1.7-11.7l50,10.3l3.7,0.8l2.8-3.5l22.3-28l9-11.3C249,105,252.7,108.2,256.2,111.3z"/>
					<path id="XMLID_1238_" class="st183" d="M251.9,228.1c-2.2,1.4-4.6,2.5-7.1,3.5c-2,0.8-4.1,1.4-6.1,1.9l-26.6-75.8l-4.8-13.8
						l-30.3-86.2l36.7,83.4l6,13.6l30.6,69.6L251.9,228.1z"/>
				</g>
				<path id="XMLID_1236_" class="st183" d="M276.6,137c11.9,30.4,2.8,74.4-24.6,91.1c-2.2,1.4-4.6,2.5-7.1,3.5
					c2-2.4,3.8-4.8,5.4-7.3c23.3-34.5,13.3-69.9-5.7-99.1c-2.7-4.1-5.5-8.1-8.5-12c-24.9-32.2-57.7-54.5-59-55.4
					c1.4,0.7,39.1,21,68.1,44.1c3.9,3.1,7.7,6.3,11.1,9.4C265.8,120.1,273.4,129,276.6,137z"/>
			</g>
			<g id="XMLID_1186_">
				<g id="XMLID_1188_">
					<path id="XMLID_1234_" class="st183" d="M144.3,265c17.3,5.3,33.3,24.3,31.1,41.9c-0.2,1.4-0.5,2.9-0.9,4.3
						c-0.3,1.1-0.8,2.3-1.3,3.3c-7.6,16.4-32,23.5-49.5,18.2c-5.2-1.6-11.3-6.3-17.3-12.3c-1.5-1.5-3-3.1-4.5-4.7
						c-13.8-15.1-26.2-34.5-26.2-34.5s0,0,0,0c0.8-0.4,22.5-9.8,42.5-14.5c2.7-0.6,5.3-1.2,7.9-1.6
						C133.3,263.9,139.7,263.6,144.3,265z"/>
					<path id="XMLID_1233_" class="st183" d="M126.1,265.1l2,9.8l4.3,20.9l0.6,2.8l-1.9,1.5l-24.7,20.3c-1.5-1.5-3-3.1-4.5-4.7
						l21.6-18.2l1.6-1.3l-0.6-2.4l-4.5-19.3l-1.8-7.8C120.9,266,123.6,265.5,126.1,265.1z"/>
					<path id="XMLID_1232_" class="st183" d="M175.4,306.9c-0.2,1.4-0.5,2.9-0.9,4.3c-0.3,1.1-0.8,2.3-1.3,3.3l-42.1-14.4l-7.7-2.6
						l-47.8-16.4l48.8,12.6l7.9,2.1l40.7,10.5L175.4,306.9z"/>
				</g>
				<path id="XMLID_1187_" class="st183" d="M144.3,265c17.3,5.3,33.3,24.3,31.1,41.9c-0.2,1.4-0.5,2.9-0.9,4.3
					c-0.4-1.7-0.8-3.3-1.3-4.8c-7-21.9-25.8-29.7-45-31.5c-2.7-0.2-5.4-0.4-8.1-0.4c-22.5-0.2-43.4,6.4-44.3,6.7
					c0.8-0.4,22.5-9.8,42.5-14.5c2.7-0.6,5.3-1.2,7.9-1.6C133.3,263.9,139.7,263.6,144.3,265z"/>
			</g>
			<g id="XMLID_1180_">
				<g id="XMLID_1182_">
					<path id="XMLID_1185_" class="st183" d="M406.5,265c-17.3,5.3-33.3,24.3-31.1,41.9c0.2,1.4,0.5,2.9,0.9,4.3
						c0.3,1.1,0.8,2.3,1.3,3.3c7.6,16.4,32,23.5,49.5,18.2c5.2-1.6,11.3-6.3,17.3-12.3c1.5-1.5,3-3.1,4.5-4.7
						c13.8-15.1,26.2-34.5,26.2-34.5s0,0,0,0c-0.8-0.4-22.5-9.8-42.5-14.5c-2.7-0.6-5.3-1.2-7.9-1.6
						C417.6,263.9,411.1,263.6,406.5,265z"/>
					<path id="XMLID_1184_" class="st183" d="M424.7,265.1l-2,9.8l-4.3,20.9l-0.6,2.8l1.9,1.5l24.7,20.3c1.5-1.5,3-3.1,4.5-4.7
						l-21.6-18.2l-1.6-1.3l0.6-2.4l4.5-19.3l1.8-7.8C429.9,266,427.2,265.5,424.7,265.1z"/>
					<path id="XMLID_1183_" class="st183" d="M375.4,306.9c0.2,1.4,0.5,2.9,0.9,4.3c0.3,1.1,0.8,2.3,1.3,3.3l42.1-14.4l7.7-2.6
						l47.8-16.4l-48.8,12.6l-7.9,2.1l-40.7,10.5L375.4,306.9z"/>
				</g>
				<path id="XMLID_1181_" class="st183" d="M406.5,265c-17.3,5.3-33.3,24.3-31.1,41.9c0.2,1.4,0.5,2.9,0.9,4.3
					c0.4-1.7,0.8-3.3,1.3-4.8c7-21.9,25.8-29.7,45-31.5c2.7-0.2,5.4-0.4,8.1-0.4c22.5-0.2,43.4,6.4,44.3,6.7
					c-0.8-0.4-22.5-9.8-42.5-14.5c-2.7-0.6-5.3-1.2-7.9-1.6C417.6,263.9,411.1,263.6,406.5,265z"/>
			</g>
			<g id="XMLID_1174_">
				<g id="XMLID_1176_">
					<path id="XMLID_1179_" class="st183" d="M392.6,168.9c-12.2,24.6-44.8,43.9-70.7,36.2c-2.1-0.6-4.2-1.4-6.2-2.4
						c-1.6-0.8-3.2-1.7-4.7-2.7c-22.7-15.5-27.3-53.9-14.9-78.9c3.7-7.4,12.3-15.3,22.8-22.8c2.6-1.9,5.4-3.8,8.2-5.6
						c26.2-16.9,58.4-30.7,58.4-30.7s0,0,0,0c0.3,1.3,9,36.3,11.1,67.4c0.3,4.2,0.4,8.3,0.4,12.3C397,152.7,395.8,162.4,392.6,168.9
						z"/>
					<path id="XMLID_1178_" class="st183" d="M397.1,141.7l-15.2,0.6l-32.5,1.2l-4.3,0.2l-1.8-3.2l-24.3-42.2
						c2.6-1.9,5.4-3.8,8.2-5.6l21.9,37l1.6,2.7l3.7-0.2l30.1-1.9l12.2-0.8C396.9,133.6,397.1,137.7,397.1,141.7z"/>
					<path id="XMLID_1177_" class="st183" d="M321.9,205.1c-2.1-0.6-4.2-1.4-6.2-2.4c-1.6-0.8-3.2-1.7-4.7-2.7l32.1-59.5l5.9-10.8
						l36.5-67.7l-31.2,70.1l-5.1,11.4l-26,58.5L321.9,205.1z"/>
				</g>
				<path id="XMLID_1175_" class="st183" d="M392.6,168.9c-12.2,24.6-44.8,43.9-70.7,36.2c-2.1-0.6-4.2-1.4-6.2-2.4
					c2.6-0.1,5.2-0.4,7.6-0.7c34.7-5,51.1-31.3,58.5-59.7c1-4,1.9-8.1,2.6-12.1c6-33.7,1.3-66.8,1.1-68.2c0.3,1.3,9,36.3,11.1,67.4
					c0.3,4.2,0.4,8.3,0.4,12.3C397,152.7,395.8,162.4,392.6,168.9z"/>
			</g>
			<g id="XMLID_1168_">
				<g id="XMLID_1170_">
					<path id="XMLID_1173_" class="st183" d="M389.1,361.4c-24,19.5-66.4,24.1-89.4,4.1c-1.9-1.6-3.6-3.4-5.2-5.4
						c-1.3-1.6-2.5-3.3-3.5-5c-16-26.5-2.8-68,21.6-87.8c7.3-5.9,19.8-10,34-12.8c3.6-0.7,7.3-1.3,11-1.9
						c34.7-5.1,74.2-4.1,74.2-4.1s0,0,0,0c-0.3,1.5-7.7,41.4-20.2,74.2c-1.7,4.4-3.5,8.7-5.3,12.8
						C401.3,346.8,395.5,356.2,389.1,361.4z"/>
					<path id="XMLID_1172_" class="st183" d="M406.4,335.5l-15.9-6.5l-33.9-13.9l-4.5-1.8l-0.4-4.1l-5.1-54.6
						c3.6-0.7,7.3-1.3,11-1.9l5.1,48.1l0.4,3.5l4,1.5l31.7,12.1l12.8,4.9C410.1,327.2,408.3,331.5,406.4,335.5z"/>
					<path id="XMLID_1171_" class="st183" d="M299.7,365.4c-1.9-1.6-3.6-3.4-5.2-5.4c-1.3-1.6-2.5-3.3-3.5-5l60.8-46l11.1-8.4
						l69.1-52.3l-64.7,57.3l-10.5,9.3l-54,47.8L299.7,365.4z"/>
				</g>
				<path id="XMLID_1169_" class="st183" d="M389.1,361.4c-24,19.5-66.4,24.1-89.4,4.1c-1.9-1.6-3.6-3.4-5.2-5.4
					c2.8,1.1,5.5,2,8.1,2.8c37.9,11,67-8.2,87.9-33.8c2.9-3.6,5.7-7.4,8.3-11.2c21.9-31.8,32.6-67.9,33-69.4
					c-0.3,1.5-7.7,41.4-20.2,74.2c-1.7,4.4-3.5,8.7-5.3,12.8C401.3,346.8,395.5,356.2,389.1,361.4z"/>
			</g>
			<g id="XMLID_1147_">
				<g id="XMLID_1164_">
					<path id="XMLID_1167_" class="st183" d="M169.9,361.4c24,19.5,66.4,24.1,89.4,4.1c1.9-1.6,3.6-3.4,5.2-5.4
						c1.3-1.6,2.5-3.3,3.5-5c16-26.5,2.8-68-21.6-87.8c-7.3-5.9-19.8-10-34-12.8c-3.6-0.7-7.3-1.3-11-1.9
						c-34.7-5.1-74.2-4.1-74.2-4.1s0,0,0,0c0.3,1.5,7.7,41.4,20.2,74.2c1.7,4.4,3.5,8.7,5.3,12.8
						C157.7,346.8,163.5,356.2,169.9,361.4z"/>
					<path id="XMLID_1166_" class="st183" d="M152.5,335.5l15.9-6.5l33.9-13.9l4.5-1.8l0.4-4.1l5.1-54.6c-3.6-0.7-7.3-1.3-11-1.9
						l-5.1,48.1l-0.4,3.5l-4,1.5l-31.7,12.1l-12.8,4.9C148.9,327.2,150.7,331.5,152.5,335.5z"/>
					<path id="XMLID_1165_" class="st183" d="M259.2,365.4c1.9-1.6,3.6-3.4,5.2-5.4c1.3-1.6,2.5-3.3,3.5-5l-60.8-46l-11.1-8.4
						l-69.1-52.3l64.7,57.3l10.5,9.3l54,47.8L259.2,365.4z"/>
				</g>
				<path id="XMLID_1163_" class="st183" d="M169.9,361.4c24,19.5,66.4,24.1,89.4,4.1c1.9-1.6,3.6-3.4,5.2-5.4
					c-2.8,1.1-5.5,2-8.1,2.8c-37.9,11-67-8.2-87.9-33.8c-2.9-3.6-5.7-7.4-8.3-11.2c-21.9-31.8-32.6-67.9-33-69.4
					c0.3,1.5,7.7,41.4,20.2,74.2c1.7,4.4,3.5,8.7,5.3,12.8C157.7,346.8,163.5,356.2,169.9,361.4z"/>
			</g>
			<g id="XMLID_1139_">
				<g id="XMLID_1141_">
					<path id="XMLID_1144_" class="st183" d="M187.6,175.3c22.1,22.1,31,64.2,13.4,89.3c-1.4,2-3.1,4-4.9,5.8c-1.5,1.5-3,2.8-4.6,4
						c-25,18.8-68,9.9-90.4-12.5C94.4,255.1,89,243,84.7,229c-1.1-3.5-2.1-7.2-3-10.9C72.9,183.8,69.8,144,69.8,144s0,0,0,0
						c1.5,0.1,42.4,3.4,76.6,12.5c4.6,1.2,9.1,2.6,13.4,4C171.7,164.6,181.8,169.4,187.6,175.3z"/>
					<path id="XMLID_1143_" class="st183" d="M159.9,160.6l-4.9,16.6l-10.5,35.5l-1.4,4.7l-4.1,0.8L84.7,229
						c-1.1-3.5-2.1-7.2-3-10.9l47.8-10.2l3.5-0.7l1.1-4.1l8.8-33.1l3.6-13.4C151.1,157.8,155.6,159.1,159.9,160.6z"/>
					<path id="XMLID_1142_" class="st183" d="M201,264.5c-1.4,2-3.1,4-4.9,5.8c-1.5,1.5-3,2.8-4.6,4L139,218.2l-9.5-10.2L69.8,144
						l64.2,59l10.4,9.6l53.6,49.2L201,264.5z"/>
				</g>
				<path id="XMLID_1140_" class="st183" d="M187.6,175.3c22.1,22.1,31,64.2,13.4,89.3c-1.4,2-3.1,4-4.9,5.8c0.8-2.9,1.5-5.7,2-8.5
					c7.1-39.2-15.2-66.4-43.1-84.7c-3.9-2.6-8-5-12.1-7.2c-34.2-18.7-71.5-25.6-73-25.9c1.5,0.1,42.4,3.4,76.6,12.5
					c4.6,1.2,9.1,2.6,13.4,4C171.7,164.6,181.8,169.4,187.6,175.3z"/>
			</g>
			<g id="XMLID_1133_">
				<g id="XMLID_1135_">
					<path id="XMLID_1138_" class="st183" d="M449.1,261.8c-22.1,22.1-64.2,31-89.3,13.4c-2-1.4-4-3.1-5.8-4.9c-1.5-1.5-2.8-3-4-4.6
						c-18.8-25-9.9-68,12.5-90.4c6.7-6.7,18.8-12.1,32.8-16.3c3.5-1.1,7.2-2.1,10.9-3c34.3-8.7,74.1-11.8,74.1-11.8s0,0,0,0
						c-0.1,1.5-3.4,42.4-12.5,76.6c-1.2,4.6-2.6,9.1-4,13.4C459.8,245.9,454.9,256,449.1,261.8z"/>
					<path id="XMLID_1137_" class="st183" d="M463.8,234.1l-16.6-4.9l-35.5-10.5l-4.7-1.4l-0.8-4.1l-10.8-54.3
						c3.5-1.1,7.2-2.1,10.9-3l10.2,47.8l0.7,3.5l4.1,1.1l33.1,8.8l13.4,3.6C466.6,225.3,465.2,229.8,463.8,234.1z"/>
					<path id="XMLID_1136_" class="st183" d="M359.8,275.2c-2-1.4-4-3.1-5.8-4.9c-1.5-1.5-2.8-3-4-4.6l56.2-52.5l10.2-9.5l63.9-59.6
						l-59,64.2l-9.6,10.4l-49.2,53.6L359.8,275.2z"/>
				</g>
				<path id="XMLID_1134_" class="st183" d="M449.1,261.8c-22.1,22.1-64.2,31-89.3,13.4c-2-1.4-4-3.1-5.8-4.9c2.9,0.8,5.7,1.5,8.5,2
					c39.2,7.1,66.4-15.2,84.7-43.1c2.6-3.9,5-8,7.2-12.1c18.7-34.2,25.6-71.5,25.9-73c-0.1,1.5-3.4,42.4-12.5,76.6
					c-1.2,4.6-2.6,9.1-4,13.4C459.8,245.9,454.9,256,449.1,261.8z"/>
			</g>
			<g id="XMLID_1123_">
				<g id="XMLID_1125_">
					<path id="XMLID_1132_" class="st183" d="M367,245.9c0,44.1-33,95-75.7,102.4c-3.5,0.6-7,0.9-10.6,0.9c-2.9,0-5.8-0.2-8.6-0.6
						c-43.6-6.2-77.7-57.9-77.7-102.7c0-13.3,6.7-30.8,16.4-49c2.4-4.6,5.1-9.2,7.8-13.9c25.5-43,62-85.7,62-85.7s0,0,0,0.1
						c1.4,1.6,38.8,45.7,63.9,88.9c3.4,5.8,6.5,11.6,9.4,17.3C361.8,219.4,367,234.3,367,245.9z"/>
					<path id="XMLID_1131_" class="st183" d="M354,203.6l-21.4,11.7l-45.8,24.9l-6,3.3l-4.9-3.3l-65-43.4c2.4-4.6,5.1-9.2,7.8-13.9
						l57.8,37.5l4.2,2.8l5.2-3l41.8-24.2l16.9-9.8C348,192.1,351.2,197.9,354,203.6z"/>
					<path id="XMLID_1128_" class="st183" d="M291.3,348.3c-3.5,0.6-7,0.9-10.6,0.9c-2.9,0-5.8-0.2-8.6-0.6l3.7-108.4l0.7-19.7
						l4.2-123.2l5.2,123l0.8,20l4.3,102.5L291.3,348.3z"/>
				</g>
				<path id="XMLID_1124_" class="st183" d="M367,245.9c0,44.1-33,95-75.7,102.4c-3.5,0.6-7,0.9-10.6,0.9c3.7-2.1,7.1-4.2,10.4-6.5
					c46.2-32,51.1-81.4,41.5-127.5c-1.4-6.5-3-12.9-4.8-19.2c-15.5-52.7-45.7-96.9-47-98.7c1.4,1.6,38.8,45.7,63.9,88.9
					c3.4,5.8,6.5,11.6,9.4,17.3C361.8,219.4,367,234.3,367,245.9z"/>
			</g>
			<path id="XMLID_1122_" class="st183" d="M346.7,422.1v6.4c0,9.3-7.5,16.9-16.9,16.9H227.2c-9.3,0-16.9-7.5-16.9-16.9v-6.4
				c0-9.3,7.5-16.9,16.9-16.9h102.6C339.1,405.3,346.7,412.8,346.7,422.1z"/>
			<path id="XMLID_1121_" class="st183" d="M328.4,422.1v6.4c0,9.3-7.5,16.9-16.9,16.9h-84.3c-9.3,0-16.9-7.5-16.9-16.9v-6.4
				c0-9.3,7.5-16.9,16.9-16.9h84.3C320.8,405.3,328.4,412.8,328.4,422.1z"/>
		</g>
		<g id="XMLID_1060_">
			<path id="XMLID_1119_" class="st184" d="M218.2,493.3L218.2,493.3c-10.5,0-19.1-8.5-19.1-19.1V332.1h38.1v142.1
				C237.2,484.8,228.7,493.3,218.2,493.3z"/>
			<path id="XMLID_1118_" class="st184" d="M292.7,493.3L292.7,493.3c-10.5,0-19.1-8.5-19.1-19.1V332.1h38.1v142.1
				C311.8,484.8,303.3,493.3,292.7,493.3z"/>
			<path id="XMLID_1117_" class="st6" d="M256,493.3L256,493.3c-10.5,0-19.1-8.5-19.1-19.1V332.1h38.1v142.1
				C275.1,484.8,266.5,493.3,256,493.3z"/>
			<g id="XMLID_1111_">
				<g id="XMLID_1113_">
					<path id="XMLID_1116_" class="st185" d="M253.6,129c11.9,30.4,2.8,74.4-24.6,91.1c-2.2,1.4-4.6,2.5-7.1,3.5
						c-2,0.8-4.1,1.4-6.1,1.9c-31.8,7.5-69.2-19-81.3-49.9c-3.6-9.2-3.7-23.1-1.9-38.3c0.4-3.8,1-7.7,1.7-11.7
						c6-36.5,19.7-75.9,19.7-75.9s0,0,0,0c1.4,0.7,39.1,21,68.1,44.1c3.9,3.1,7.7,6.3,11.1,9.4C242.9,112.1,250.5,120.9,253.6,129z"
						/>
					<path id="XMLID_1115_" class="st185" d="M233.2,103.3l-11.6,13.8l-24.9,29.6l-3.3,3.9l-4.3-0.9l-56.5-12.4
						c0.4-3.8,1-7.7,1.7-11.7l50,10.3l3.7,0.8l2.8-3.5l22.3-28l9-11.3C226,96.9,229.8,100.1,233.2,103.3z"/>
					<path id="XMLID_1114_" class="st185" d="M229,220c-2.2,1.4-4.6,2.5-7.1,3.5c-2,0.8-4.1,1.4-6.1,1.9l-26.6-75.8l-4.8-13.8
						L154,49.7l36.7,83.4l6,13.6l30.6,69.6L229,220z"/>
				</g>
				<path id="XMLID_1112_" class="st185" d="M253.6,129c11.9,30.4,2.8,74.4-24.6,91.1c-2.2,1.4-4.6,2.5-7.1,3.5
					c2-2.4,3.8-4.8,5.4-7.3c23.3-34.5,13.3-69.9-5.7-99.1c-2.7-4.1-5.5-8.1-8.5-12c-24.9-32.2-57.7-54.5-59-55.4
					c1.4,0.7,39.1,21,68.1,44.1c3.9,3.1,7.7,6.3,11.1,9.4C242.9,112.1,250.5,120.9,253.6,129z"/>
			</g>
			<g id="XMLID_1105_">
				<g id="XMLID_1107_">
					<path id="XMLID_1110_" class="st185" d="M121.3,256.9c17.3,5.3,33.3,24.3,31.1,41.9c-0.2,1.4-0.5,2.9-0.9,4.3
						c-0.3,1.1-0.8,2.3-1.3,3.3c-7.6,16.4-32,23.5-49.5,18.2c-5.2-1.6-11.3-6.3-17.3-12.3c-1.5-1.5-3-3.1-4.5-4.7
						c-13.8-15.1-26.2-34.5-26.2-34.5s0,0,0,0c0.8-0.4,22.5-9.8,42.5-14.5c2.7-0.6,5.3-1.2,7.9-1.6
						C110.3,255.8,116.8,255.6,121.3,256.9z"/>
					<path id="XMLID_1109_" class="st185" d="M103.2,257l2,9.8l4.3,20.9l0.6,2.8l-1.9,1.5l-24.7,20.3c-1.5-1.5-3-3.1-4.5-4.7
						l21.6-18.2l1.6-1.3l-0.6-2.4l-4.5-19.3l-1.8-7.8C98,258,100.6,257.4,103.2,257z"/>
					<path id="XMLID_1108_" class="st185" d="M152.4,298.8c-0.2,1.4-0.5,2.9-0.9,4.3c-0.3,1.1-0.8,2.3-1.3,3.3L108.2,292l-7.7-2.6
						l-47.8-16.4l48.8,12.6l7.9,2.1l40.7,10.5L152.4,298.8z"/>
				</g>
				<path id="XMLID_1106_" class="st185" d="M121.3,256.9c17.3,5.3,33.3,24.3,31.1,41.9c-0.2,1.4-0.5,2.9-0.9,4.3
					c-0.4-1.7-0.8-3.3-1.3-4.8c-7-21.9-25.8-29.7-45-31.5c-2.7-0.2-5.4-0.4-8.1-0.4c-22.5-0.2-43.4,6.4-44.3,6.7
					c0.8-0.4,22.5-9.8,42.5-14.5c2.7-0.6,5.3-1.2,7.9-1.6C110.3,255.8,116.8,255.6,121.3,256.9z"/>
			</g>
			<g id="XMLID_1099_">
				<g id="XMLID_1101_">
					<path id="XMLID_1104_" class="st186" d="M383.6,256.9c-17.3,5.3-33.3,24.3-31.1,41.9c0.2,1.4,0.5,2.9,0.9,4.3
						c0.3,1.1,0.8,2.3,1.3,3.3c7.6,16.4,32,23.5,49.5,18.2c5.2-1.6,11.3-6.3,17.3-12.3c1.5-1.5,3-3.1,4.5-4.7
						c13.8-15.1,26.2-34.5,26.2-34.5s0,0,0,0c-0.8-0.4-22.5-9.8-42.5-14.5c-2.7-0.6-5.3-1.2-7.9-1.6
						C394.6,255.8,388.1,255.6,383.6,256.9z"/>
					<path id="XMLID_1103_" class="st186" d="M401.7,257l-2,9.8l-4.3,20.9l-0.6,2.8l1.9,1.5l24.7,20.3c1.5-1.5,3-3.1,4.5-4.7
						l-21.6-18.2l-1.6-1.3l0.6-2.4l4.5-19.3l1.8-7.8C406.9,258,404.3,257.4,401.7,257z"/>
					<path id="XMLID_1102_" class="st186" d="M352.5,298.8c0.2,1.4,0.5,2.9,0.9,4.3c0.3,1.1,0.8,2.3,1.3,3.3l42.1-14.4l7.7-2.6
						l47.8-16.4l-48.8,12.6l-7.9,2.1l-40.7,10.5L352.5,298.8z"/>
				</g>
				<path id="XMLID_1100_" class="st186" d="M383.6,256.9c-17.3,5.3-33.3,24.3-31.1,41.9c0.2,1.4,0.5,2.9,0.9,4.3
					c0.4-1.7,0.8-3.3,1.3-4.8c7-21.9,25.8-29.7,45-31.5c2.7-0.2,5.4-0.4,8.1-0.4c22.5-0.2,43.4,6.4,44.3,6.7
					c-0.8-0.4-22.5-9.8-42.5-14.5c-2.7-0.6-5.3-1.2-7.9-1.6C394.6,255.8,388.1,255.6,383.6,256.9z"/>
			</g>
			<g id="XMLID_1093_">
				<g id="XMLID_1095_">
					<path id="XMLID_1098_" class="st186" d="M369.6,160.9c-12.2,24.6-44.8,43.9-70.7,36.2c-2.1-0.6-4.2-1.4-6.2-2.4
						c-1.6-0.8-3.2-1.7-4.7-2.7c-22.7-15.5-27.3-53.9-14.9-78.9c3.7-7.4,12.3-15.3,22.8-22.8c2.6-1.9,5.4-3.8,8.2-5.6
						c26.2-16.9,58.4-30.7,58.4-30.7s0,0,0,0c0.3,1.3,9,36.3,11.1,67.4c0.3,4.2,0.4,8.3,0.4,12.3
						C374.1,144.6,372.8,154.3,369.6,160.9z"/>
					<path id="XMLID_1097_" class="st186" d="M374.1,133.6l-15.2,0.6l-32.5,1.2l-4.3,0.2l-1.8-3.2l-24.3-42.2
						c2.6-1.9,5.4-3.8,8.2-5.6l21.9,37l1.6,2.7l3.7-0.2l30.1-1.9l12.2-0.8C373.9,125.5,374.1,129.7,374.1,133.6z"/>
					<path id="XMLID_1096_" class="st186" d="M298.9,197.1c-2.1-0.6-4.2-1.4-6.2-2.4c-1.6-0.8-3.2-1.7-4.7-2.7l32.1-59.5l5.9-10.8
						l36.5-67.7L331.4,124l-5.1,11.4l-26,58.5L298.9,197.1z"/>
				</g>
				<path id="XMLID_1094_" class="st186" d="M369.6,160.9c-12.2,24.6-44.8,43.9-70.7,36.2c-2.1-0.6-4.2-1.4-6.2-2.4
					c2.6-0.1,5.2-0.4,7.6-0.7c34.7-5,51.1-31.3,58.5-59.7c1-4,1.9-8.1,2.6-12.1c6-33.7,1.3-66.8,1.1-68.2c0.3,1.3,9,36.3,11.1,67.4
					c0.3,4.2,0.4,8.3,0.4,12.3C374.1,144.6,372.8,154.3,369.6,160.9z"/>
			</g>
			<g id="XMLID_1087_">
				<g id="XMLID_1089_">
					<path id="XMLID_1092_" class="st184" d="M366.1,353.3c-24,19.5-66.4,24.1-89.4,4.1c-1.9-1.6-3.6-3.4-5.2-5.4
						c-1.3-1.6-2.5-3.3-3.5-5c-16-26.5-2.8-68,21.6-87.8c7.3-5.9,19.8-10,34-12.8c3.6-0.7,7.3-1.3,11-1.9
						c34.7-5.1,74.2-4.1,74.2-4.1s0,0,0,0c-0.3,1.5-7.7,41.4-20.2,74.2c-1.7,4.4-3.5,8.7-5.3,12.8
						C378.3,338.7,372.5,348.1,366.1,353.3z"/>
					<path id="XMLID_1091_" class="st184" d="M383.5,327.5l-15.9-6.5L333.7,307l-4.5-1.8l-0.4-4.1l-5.1-54.6c3.6-0.7,7.3-1.3,11-1.9
						l5.1,48.1l0.4,3.5l4,1.5l31.7,12.1l12.8,4.9C387.1,319.1,385.3,323.4,383.5,327.5z"/>
					<path id="XMLID_1090_" class="st184" d="M276.8,357.4c-1.9-1.6-3.6-3.4-5.2-5.4c-1.3-1.6-2.5-3.3-3.5-5l60.8-46l11.1-8.4
						l69.1-52.3l-64.7,57.3l-10.5,9.3l-54,47.8L276.8,357.4z"/>
				</g>
				<path id="XMLID_1088_" class="st184" d="M366.1,353.3c-24,19.5-66.4,24.1-89.4,4.1c-1.9-1.6-3.6-3.4-5.2-5.4
					c2.8,1.1,5.5,2,8.1,2.8c37.9,11,67-8.2,87.9-33.8c2.9-3.6,5.7-7.4,8.3-11.2c21.9-31.8,32.6-67.9,33-69.4
					c-0.3,1.5-7.7,41.4-20.2,74.2c-1.7,4.4-3.5,8.7-5.3,12.8C378.3,338.7,372.5,348.1,366.1,353.3z"/>
			</g>
			<g id="XMLID_1081_">
				<g id="XMLID_1083_">
					<path id="XMLID_1086_" class="st184" d="M146.9,353.3c24,19.5,66.4,24.1,89.4,4.1c1.9-1.6,3.6-3.4,5.2-5.4
						c1.3-1.6,2.5-3.3,3.5-5c16-26.5,2.8-68-21.6-87.8c-7.3-5.9-19.8-10-34-12.8c-3.6-0.7-7.3-1.3-11-1.9
						c-34.7-5.1-74.2-4.1-74.2-4.1s0,0,0,0c0.3,1.5,7.7,41.4,20.2,74.2c1.7,4.4,3.5,8.7,5.3,12.8
						C134.7,338.7,140.5,348.1,146.9,353.3z"/>
					<path id="XMLID_1085_" class="st184" d="M129.6,327.5l15.9-6.5l33.9-13.9l4.5-1.8l0.4-4.1l5.1-54.6c-3.6-0.7-7.3-1.3-11-1.9
						l-5.1,48.1l-0.4,3.5l-4,1.5l-31.7,12.1l-12.8,4.9C125.9,319.1,127.7,323.4,129.6,327.5z"/>
					<path id="XMLID_1084_" class="st184" d="M236.3,357.4c1.9-1.6,3.6-3.4,5.2-5.4c1.3-1.6,2.5-3.3,3.5-5l-60.8-46l-11.1-8.4
						l-69.1-52.3l64.7,57.3l10.5,9.3l54,47.8L236.3,357.4z"/>
				</g>
				<path id="XMLID_1082_" class="st184" d="M146.9,353.3c24,19.5,66.4,24.1,89.4,4.1c1.9-1.6,3.6-3.4,5.2-5.4
					c-2.8,1.1-5.5,2-8.1,2.8c-37.9,11-67-8.2-87.9-33.8c-2.9-3.6-5.7-7.4-8.3-11.2c-21.9-31.8-32.6-67.9-33-69.4
					c0.3,1.5,7.7,41.4,20.2,74.2c1.7,4.4,3.5,8.7,5.3,12.8C134.7,338.7,140.5,348.1,146.9,353.3z"/>
			</g>
			<g id="XMLID_1075_">
				<g id="XMLID_1077_">
					<path id="XMLID_1080_" class="st6" d="M164.6,167.2c22.1,22.1,31,64.2,13.4,89.3c-1.4,2-3.1,4-4.9,5.8c-1.5,1.5-3,2.8-4.6,4
						c-25,18.8-68,9.9-90.4-12.5c-6.7-6.7-12.1-18.8-16.3-32.8c-1.1-3.5-2.1-7.2-3-10.9C50,175.7,46.9,136,46.9,136s0,0,0,0
						c1.5,0.1,42.4,3.4,76.6,12.5c4.6,1.2,9.1,2.6,13.4,4C148.8,156.5,158.8,161.4,164.6,167.2z"/>
					<path id="XMLID_1079_" class="st184" d="M136.9,152.5l-4.9,16.6l-10.5,35.5l-1.4,4.7l-4.1,0.8l-54.3,10.8
						c-1.1-3.5-2.1-7.2-3-10.9l47.8-10.2l3.5-0.7l1.1-4.1l8.8-33.1l3.6-13.4C128.2,149.7,132.7,151.1,136.9,152.5z"/>
					<path id="XMLID_1078_" class="st184" d="M178,256.5c-1.4,2-3.1,4-4.9,5.8c-1.5,1.5-3,2.8-4.6,4l-52.5-56.2l-9.5-10.2L46.9,136
						l64.2,59l10.4,9.6l53.6,49.2L178,256.5z"/>
				</g>
				<path id="XMLID_1076_" class="st184" d="M164.6,167.2c22.1,22.1,31,64.2,13.4,89.3c-1.4,2-3.1,4-4.9,5.8c0.8-2.9,1.5-5.7,2-8.5
					c7.1-39.2-15.2-66.4-43.1-84.7c-3.9-2.6-8-5-12.1-7.2c-34.2-18.7-71.5-25.6-73-25.9c1.5,0.1,42.4,3.4,76.6,12.5
					c4.6,1.2,9.1,2.6,13.4,4C148.8,156.5,158.8,161.4,164.6,167.2z"/>
			</g>
			<g id="XMLID_1069_">
				<g id="XMLID_1071_">
					<path id="XMLID_1074_" class="st6" d="M426.1,253.7c-22.1,22.1-64.2,31-89.3,13.4c-2-1.4-4-3.1-5.8-4.9c-1.5-1.5-2.8-3-4-4.6
						c-18.8-25-9.9-68,12.5-90.4c6.7-6.7,18.8-12.1,32.8-16.3c3.5-1.1,7.2-2.1,10.9-3c34.3-8.7,74.1-11.8,74.1-11.8s0,0,0,0
						c-0.1,1.5-3.4,42.4-12.5,76.6c-1.2,4.6-2.6,9.1-4,13.4C436.8,237.9,432,247.9,426.1,253.7z"/>
					<path id="XMLID_1073_" class="st184" d="M440.8,226l-16.6-4.9l-35.5-10.5l-4.7-1.4l-0.8-4.1l-10.8-54.3c3.5-1.1,7.2-2.1,10.9-3
						l10.2,47.8l0.7,3.5l4.1,1.1l33.1,8.8l13.4,3.6C443.6,217.3,442.3,221.8,440.8,226z"/>
					<path id="XMLID_1072_" class="st184" d="M336.8,267.1c-2-1.4-4-3.1-5.8-4.9c-1.5-1.5-2.8-3-4-4.6l56.2-52.5l10.2-9.5l63.9-59.6
						l-59,64.2l-9.6,10.4l-49.2,53.6L336.8,267.1z"/>
				</g>
				<path id="XMLID_1070_" class="st184" d="M426.1,253.7c-22.1,22.1-64.2,31-89.3,13.4c-2-1.4-4-3.1-5.8-4.9c2.9,0.8,5.7,1.5,8.5,2
					c39.2,7.1,66.4-15.2,84.7-43.1c2.6-3.9,5-8,7.2-12.1c18.7-34.2,25.6-71.5,25.9-73c-0.1,1.5-3.4,42.4-12.5,76.6
					c-1.2,4.6-2.6,9.1-4,13.4C436.8,237.9,432,247.9,426.1,253.7z"/>
			</g>
			<g id="XMLID_1063_">
				<g id="XMLID_1065_">
					<path id="XMLID_1068_" class="st6" d="M344,237.9c0,44.1-33,95-75.7,102.4c-3.5,0.6-7,0.9-10.6,0.9c-2.9,0-5.8-0.2-8.6-0.6
						c-43.6-6.2-77.7-57.9-77.7-102.7c0-13.3,6.7-30.8,16.4-49c2.4-4.6,5.1-9.2,7.8-13.9c25.5-43,62-85.7,62-85.7s0,0,0,0.1
						c1.4,1.6,38.8,45.7,63.9,88.9c3.4,5.8,6.5,11.6,9.4,17.3C338.9,211.4,344,226.2,344,237.9z"/>
					<path id="XMLID_1067_" class="st184" d="M331.1,195.6l-21.4,11.7l-45.8,24.9l-6,3.3l-4.9-3.3l-65-43.4
						c2.4-4.6,5.1-9.2,7.8-13.9l57.8,37.5l4.2,2.8l5.2-3l41.8-24.2l16.9-9.8C325.1,184,328.2,189.9,331.1,195.6z"/>
					<path id="XMLID_1066_" class="st184" d="M268.4,340.3c-3.5,0.6-7,0.9-10.6,0.9c-2.9,0-5.8-0.2-8.6-0.6l3.7-108.4l0.7-19.7
						l4.2-123.2l5.2,123l0.8,20l4.3,102.5L268.4,340.3z"/>
				</g>
				<path id="XMLID_1064_" class="st184" d="M344,237.9c0,44.1-33,95-75.7,102.4c-3.5,0.6-7,0.9-10.6,0.9c3.7-2.1,7.1-4.2,10.4-6.5
					c46.2-32,51.1-81.4,41.5-127.5c-1.4-6.5-3-12.9-4.8-19.2c-15.5-52.7-45.7-96.9-47-98.7c1.4,1.6,38.8,45.7,63.9,88.9
					c3.4,5.8,6.5,11.6,9.4,17.3C338.9,211.4,344,226.2,344,237.9z"/>
			</g>
			<path id="XMLID_1062_" class="st187" d="M323.7,414.1v6.4c0,9.3-7.5,16.9-16.9,16.9H204.2c-9.3,0-16.9-7.5-16.9-16.9v-6.4
				c0-9.3,7.5-16.9,16.9-16.9h102.6C316.1,397.2,323.7,404.8,323.7,414.1z"/>
			<path id="XMLID_1061_" class="st69" d="M305.4,414.1v6.4c0,9.3-7.5,16.9-16.9,16.9h-84.3c-9.3,0-16.9-7.5-16.9-16.9v-6.4
				c0-9.3,7.5-16.9,16.9-16.9h84.3C297.8,397.2,305.4,404.8,305.4,414.1z"/>
		</g>
	</g>
</g>
</svg>
